<svg id="Laag_1" data-name="Laag 1" xmlns="http://www.w3.org/2000/svg" viewBox="0 0 1219.78 172.71"><defs><style>.cls-1{fill:#ffd500;}.cls-2{fill:#182541;}.cls-3{fill:#fff;}.cls-4{fill:#0e0f0e;}</style></defs><title>DYNACOAT_Logo</title><rect class="cls-1" width="609.89" height="172.7"/><rect class="cls-2" x="609.89" width="609.89" height="172.7"/><path class="cls-3" d="M694.22,143.44c31.79,0,49.59-23.36,49.59-45.33H711c-2,10.22-6.4,18.16-17.66,18.16-15.68,0-20.7-15.27-20.7-29.92s5-29.92,20.7-29.92c13.85,0,16.88,12.06,17.5,16h32.55c-2.89-27.33-19.33-43-49.14-43.2-33.46,0-55.07,22.74-55.07,57.09C639.15,118.57,659.08,143.44,694.22,143.44Z"/><path class="cls-3" d="M844,143.44c33,0,55.07-23.8,55.07-57.09S877,29.26,844,29.26s-55.07,23.81-55.07,57.09S811,143.44,844,143.44Zm0-87c8.51,0,21.6,5.65,21.6,29.92s-13.09,29.92-21.6,29.92-21.61-5.64-21.61-29.92S835.44,56.43,844,56.43Z"/><path class="cls-3" d="M975.1,127.13h36.18l4.77,16.32h36.33L1011,29.26H976.71L934.8,143.45H970Zm18.65-59.64h.32l10.2,35.17h-21.5Z"/><polygon class="cls-3" points="1123.59 143.45 1158.65 143.45 1158.65 58.52 1190.52 58.52 1190.52 29.26 1091.72 29.26 1091.72 58.52 1123.59 58.52 1123.59 143.45"/><path class="cls-4" d="M116.15,126.83C104.79,138,91.46,143.45,75.83,143.45H29.1V29.09H75.83c15.63,0,29,5.59,40.32,16.78a55.06,55.06,0,0,1,16.78,40.32C132.93,102,127.34,115.48,116.15,126.83ZM97.55,86.52a21.65,21.65,0,0,0-6.09-15.14c-3.78-4.45-9.21-6.75-15.63-6.75H64.48v43.44H68.1c8.22.17,16.29.33,23-6.41A20.58,20.58,0,0,0,97.55,86.52Z"/><path class="cls-4" d="M283.63,29.25l-40.8,70.6v43.6H207.28V99.85l-40.81-70.6h41l17.61,30,17.61-29.95Z"/><path class="cls-4" d="M434.14,143.45H399.09l-.33.17L362.07,90.8v52.65H326.68v-114l35.39-.17,36.53,52v-52h35.54Z"/><path class="cls-4" d="M550.29,128.48H513.92l-5.27,15.14-37.51-.17,39.65-114.2h42.46l39.66,114.2H555.55ZM540.08,99.35,532,76.15,524,99.35Z"/></svg>